<?xml version="1.0" standalone="no"?>
<!DOCTYPE svg PUBLIC "-//W3C//DTD SVG 20010904//EN"
 "http://www.w3.org/TR/2001/REC-SVG-20010904/DTD/svg10.dtd">
<svg version="1.0" xmlns="http://www.w3.org/2000/svg"
 width="947.000000pt" height="947.000000pt" viewBox="0 0 947.000000 947.000000"
 preserveAspectRatio="xMidYMid meet">

<g transform="translate(0.000000,947.000000) scale(0.100000,-0.100000)"
fill="#000000" stroke="none">
<path d="M4215 7479 c-125 -8 -299 -33 -395 -55 -305 -71 -441 -117 -685 -235
-387 -187 -735 -467 -1005 -809 -28 -36 -57 -72 -65 -81 -102 -128 -290 -461
-367 -654 -76 -188 -156 -478 -183 -660 -36 -246 -38 -560 -6 -815 27 -206 96
-467 178 -669 48 -118 149 -323 198 -401 44 -71 146 -222 169 -251 12 -14 32
-41 46 -59 132 -179 424 -458 615 -590 28 -19 52 -38 55 -41 10 -11 156 -108
210 -138 70 -39 356 -181 366 -181 4 0 26 -9 48 -19 83 -39 317 -110 471 -141
273 -57 383 -70 670 -76 267 -6 435 4 660 41 100 17 309 63 340 76 11 4 58 19
105 34 165 51 419 160 565 243 28 16 68 39 90 52 129 73 369 250 489 361 300
276 488 521 671 874 135 260 237 575 279 860 8 54 14 101 12 103 -2 2 -239 8
-525 15 -1575 34 -2698 -93 -3871 -437 -206 -60 -589 -195 -642 -226 -15 -9
-24 2 -63 80 -158 315 -236 695 -207 1010 17 179 52 341 112 515 65 189 206
438 333 590 71 84 219 230 302 296 67 54 262 177 336 211 171 81 328 134 511
175 l123 27 1015 6 c1071 7 1049 6 1220 53 336 93 581 278 766 577 60 97 144
326 126 344 -8 9 -2942 4 -3067 -5z m2754 -365 c-26 -31 -137 -104 -220 -143
-100 -48 -240 -87 -364 -101 -55 -6 -454 -10 -1015 -10 -916 0 -1112 -6 -1315
-36 -497 -74 -942 -295 -1304 -647 -46 -45 -100 -102 -120 -127 -20 -25 -38
-47 -41 -50 -20 -18 -108 -141 -157 -221 -168 -269 -268 -543 -319 -879 -25
-157 -25 -463 0 -615 21 -132 65 -314 100 -409 14 -39 24 -71 22 -73 -4 -5
-89 181 -111 242 -9 28 -21 59 -26 70 -14 34 -47 156 -63 235 -58 290 -43 689
35 945 58 190 69 220 142 376 124 267 373 583 612 776 392 316 879 509 1390
549 49 4 605 8 1235 8 l1145 1 90 23 c117 29 237 69 261 87 26 19 40 19 23 -1z
m-1580 -3158 c-2 -2 -71 -18 -154 -36 -229 -48 -453 -108 -670 -178 -93 -30
-379 -138 -405 -152 -25 -14 -90 32 -90 64 0 22 347 131 590 185 279 62 751
138 729 117z m1841 -111 c0 -3 -9 -33 -20 -66 -94 -277 -256 -577 -442 -817
-179 -231 -474 -496 -718 -644 -239 -145 -561 -269 -845 -326 -206 -42 -262
-48 -150 -16 245 68 493 171 705 291 93 53 122 72 215 137 232 162 407 323
602 552 19 22 33 41 106 139 68 91 200 313 261 439 54 113 126 286 126 306 0
6 32 10 80 10 44 0 80 -2 80 -5z m-660 -14 c0 -39 -142 -315 -223 -435 -192
-283 -387 -478 -689 -689 -37 -26 -70 -47 -73 -47 -4 0 -26 -14 -50 -30 -50
-35 -241 -131 -318 -161 -29 -11 -67 -27 -85 -35 -90 -42 -356 -114 -512 -139
-238 -39 -616 -43 -815 -10 -575 97 -1019 327 -1457 754 -71 68 -128 128 -128
133 0 4 51 -34 114 -86 457 -376 986 -602 1551 -662 190 -20 456 -14 635 16
156 26 269 49 286 58 7 4 -74 7 -179 7 -174 0 -199 2 -267 23 -165 52 -237
112 -261 219 -9 39 -8 60 5 113 9 35 23 71 31 80 8 9 15 20 15 23 0 4 6 15 14
24 122 150 199 215 408 345 111 68 330 167 503 226 402 138 789 217 1280 261
66 6 134 13 150 15 58 6 65 6 65 -3z m-2826 -373 l64 -31 -163 -102 c-164
-103 -240 -158 -371 -272 l-72 -62 -71 60 c-39 33 -71 63 -71 68 0 10 118 97
239 176 102 66 345 195 368 195 7 0 42 -14 77 -32z"/>
<path d="M4630 5499 c-233 -24 -604 -109 -775 -178 -185 -75 -504 -182 -595
-201 -57 -12 -165 -23 -245 -27 l-145 -6 8 -26 c4 -14 7 -73 7 -131 l0 -105
-50 -100 c-48 -95 -50 -103 -50 -181 0 -45 4 -86 8 -91 5 -4 20 6 34 22 14 17
44 51 67 76 64 73 76 88 107 140 35 60 59 139 59 196 l0 43 68 0 c37 1 101 5
142 10 407 49 573 50 830 5 334 -59 277 -57 1500 -65 737 -5 1168 -12 1230
-19 342 -41 655 -141 740 -237 32 -37 32 -39 28 -116 l-5 -78 84 0 83 0 0 83
c0 142 -41 213 -166 290 -94 57 -179 93 -295 126 -236 68 -460 102 -815 125
l-212 13 -143 85 c-375 221 -616 309 -933 343 -148 16 -428 18 -566 4z m203
-156 c24 -89 68 -305 64 -310 -10 -9 -453 16 -557 32 -218 33 -420 81 -403 95
26 22 325 119 458 149 112 25 275 46 382 49 42 2 53 -1 56 -15z m358 2 c135
-18 278 -53 409 -102 98 -36 373 -173 400 -199 12 -12 -48 -14 -452 -14 l-467
0 -11 43 c-6 23 -26 93 -45 156 -19 62 -35 117 -35 122 0 13 71 11 201 -6z"/>
<path d="M6765 4724 c-61 -9 -152 -47 -210 -88 -58 -40 -155 -161 -155 -193 0
-10 21 -13 85 -13 47 0 85 4 85 9 0 20 78 86 130 110 114 52 270 17 353 -79
l34 -40 76 0 c57 0 77 3 77 13 0 7 -21 45 -47 83 -93 134 -277 220 -428 198z"/>
<path d="M3593 4701 c-120 -42 -219 -124 -269 -223 -13 -26 -24 -50 -24 -53 0
-3 33 -5 73 -5 l73 0 52 49 c78 73 130 95 227 96 97 0 153 -23 229 -97 l51
-49 70 3 c83 4 85 10 25 98 -52 76 -99 116 -189 159 -68 32 -85 36 -171 38
-72 2 -108 -2 -147 -16z"/>
</g>
</svg>
